<?xml version="1.0" encoding="utf-8"?>
<svg version="1.1" x="0px" y="0px" width="312.13409" height="294.80368" viewBox="0 0 312.1341 294.80369" id="svg350" lang="mul" xmlns="http://www.w3.org/2000/svg">
  <g id="g348" style="font-family:'Liberation Sans', Dyuthi, 'VL PGothic', sans-serif" transform="translate(-340.99201,-28.793115)">
    <path stroke-miterlimit="22.9256" d="m 497.564,43.682 c 68.356,0 123.791,55.256 123.791,123.393 0,68.137 -55.435,123.393 -123.791,123.393 -68.355,0 -123.79,-55.256 -123.79,-123.393 0,-68.137 55.435,-123.393 123.79,-123.393 z" id="path64" style="fill:none;stroke:#000000;stroke-width:0.56690001;stroke-miterlimit:22.92560005"/>
    <path stroke-miterlimit="22.9256" d="m 497.399,42.009 c 68.979,0 124.918,55.431 124.918,123.782 0,68.351 -55.938,123.783 -124.918,123.783 -68.979,0 -124.917,-55.432 -124.917,-123.783 0,-68.351 55.939,-123.782 124.917,-123.782 z" id="path94" style="fill:none;stroke:#000000;stroke-width:2.9999001;stroke-miterlimit:22.92560005"/>
    <path stroke-miterlimit="22.9256" d="m 499.104,75.3 c 0,137.027 0,210.101 0,214.274" id="path96" style="fill:none;stroke:#000000;stroke-width:2.9999001;stroke-miterlimit:22.92560005;stroke-dasharray:6, 3"/>
    <path stroke-miterlimit="22.9256" d="m 526.588,285.599 c 14.691,-42.586 5.91,-116.212 -27.481,-214.064" id="path98" style="fill:none;stroke:#000000;stroke-width:1.00010002;stroke-miterlimit:22.92560005"/>
    <path stroke-miterlimit="22.9256" d="m 499.671,71.535 c 53.374,75.431 71.732,145.556 53.942,205.263" id="path100" style="fill:none;stroke:#000000;stroke-width:1.00010002;stroke-miterlimit:22.92560005"/>
    <path stroke-miterlimit="22.9256" d="m 500.239,70.967 c 66.706,54.015 94.47,118.461 83.076,184.822" id="path102" style="fill:none;stroke:#000000;stroke-width:1.00010002;stroke-miterlimit:22.92560005"/>
    <path stroke-miterlimit="22.9256" d="M 602.092,231.657 C 616.218,176.959 582.173,117.339 501.091,70.968" id="path104" style="fill:none;stroke:#000000;stroke-width:1.00010002;stroke-miterlimit:22.92560005"/>
    <path stroke-miterlimit="22.9256" d="m 501.091,70.683 c 80.163,24.887 118.77,75.428 115.833,124.35" id="path106" style="fill:none;stroke:#000000;stroke-width:1.00010002;stroke-miterlimit:22.92560005"/>
    <path stroke-miterlimit="22.9256" d="M 620.798,150.076 C 596.785,99.902 551.824,69.529 500.479,70.116" id="path108" style="fill:none;stroke:#000000;stroke-width:1.00010002;stroke-miterlimit:22.92560005"/>
    <path stroke-miterlimit="22.9256" d="M 607.271,105.669 C 576.709,72.346 539.518,59.227 500.807,68.584 c 5.349,-5.817 24.615,-10.219 44.899,-8.638 6.807,0.53 13.56,2.749 20.111,4.78 3.675,1.139 6.086,2.219 9.609,2.908" id="path110" style="fill:none;stroke:#000000;stroke-width:1.00010002;stroke-miterlimit:22.92560005"/>
    <path stroke-miterlimit="22.9256" d="m 533.052,46.813 c -16.856,6.039 -29.891,15.66 -33.665,23.711" id="path112" style="fill:none;stroke:#000000;stroke-width:1.00010002;stroke-miterlimit:22.92560005"/>
    <path stroke-miterlimit="22.9256" d="m 514.419,44.265 c -7.949,7.507 -12.666,15.598 -15.315,23.106" id="path114" style="fill:none;stroke:#000000;stroke-width:1.00010002;stroke-miterlimit:22.92560005"/>
    <path stroke-miterlimit="22.9256" d="m 479.305,43.084 c 14.283,6 18.754,16.177 19.239,25.869" id="path116" style="fill:none;stroke:#000000;stroke-width:1.00010002;stroke-miterlimit:22.92560005"/>
    <path stroke-miterlimit="22.9256" d="m 456.339,48.39 c 20.193,-0.212 32.769,8.045 40.209,18.886" id="path118" style="fill:none;stroke:#000000;stroke-width:1.00010002;stroke-miterlimit:22.92560005"/>
    <path stroke-miterlimit="22.9256" d="M 496.832,68.022 C 459.847,55.009 427.664,61.196 400.285,86.582" id="path120" style="fill:none;stroke:#000000;stroke-width:1.00010002;stroke-miterlimit:22.92560005"/>
    <path stroke-miterlimit="22.9256" d="M 497.116,69.266 C 462.409,61.67 425.785,72.458 393.207,97.087" id="path122" style="fill:none;stroke:#000000;stroke-width:1.00010002;stroke-miterlimit:22.92560005"/>
    <path stroke-miterlimit="22.9256" d="m 498.325,69.622 c -23.903,-4.254 -52.099,6.303 -82.098,24.414 -12.774,7.712 -30.421,27.667 -39.644,41.03" id="path124" style="fill:none;stroke:#000000;stroke-width:1.00010002;stroke-miterlimit:22.92560005"/>
    <path stroke-miterlimit="22.9256" d="M 495.128,71.132 C 452.529,85.524 402.361,92.416 374.071,179.709" id="path126" style="fill:none;stroke:#000000;stroke-width:1.00010002;stroke-miterlimit:22.92560005"/>
    <path stroke-miterlimit="22.9256" d="M 385.825,219.356 C 386.214,162.75 424.259,106.851 497.688,69.832 435.914,117.429 405.25,182.328 409.136,252.449" id="path128" style="fill:none;stroke:#000000;stroke-width:1.00010002;stroke-miterlimit:22.92560005"/>
    <path stroke-miterlimit="22.9256" d="m 497.874,70.399 c -53.887,72.109 -72.826,143.976 -58.521,205.113" id="path130" style="fill:none;stroke:#000000;stroke-width:1.00010002;stroke-miterlimit:22.92560005"/>
    <path stroke-miterlimit="22.9256" d="m 498.243,71.251 c -31.172,90.377 -39.426,163.53 -25.898,215.483" id="path132" style="fill:none;stroke:#000000;stroke-width:1.00010002;stroke-miterlimit:22.92560005"/>
    <path stroke-miterlimit="22.9256" d="m 498.805,41.745 c 0,27.489 0,36.399 0,26.73" id="path144" style="fill:none;stroke:#000000;stroke-width:1.00010002;stroke-miterlimit:22.92560005"/>
    <path stroke-miterlimit="22.9256" d="M 497.328,68.088 C 470.519,55.266 448.373,52.546 430.889,59.929" id="path146" style="fill:none;stroke:#000000;stroke-width:1.00010002;stroke-miterlimit:22.92560005"/>
    <path stroke-miterlimit="22.9256" d="m 553.86,54.684 c -17.483,-2.719 -32.929,2.72 -55.075,13.987" id="path148" style="fill:none;stroke:#000000;stroke-width:1.00010002;stroke-miterlimit:22.92560005"/>
    <g font-size="16" id="g230" style="font-size: 16px; visibility: hidden;" transform="translate(6,6)">
      <path d="m 619.013,249.169 -0.675,15.183 -0.258,-0.325 -0.264,-0.315 -0.269,-0.305 -0.273,-0.294 -0.278,-0.283 -0.284,-0.273 -0.289,-0.263 -0.293,-0.252 -0.3,-0.241 -0.304,-0.231 -0.31,-0.221 -0.313,-0.21 -0.319,-0.199 -0.324,-0.188 -0.33,-0.179 -0.334,-0.167 -0.34,-0.157 -0.345,-0.147 -0.35,-0.136 -0.354,-0.126 -0.36,-0.115 -0.365,-0.104 -0.369,-0.094 -0.376,-0.083 -0.38,-0.073 -0.386,-0.063 -0.39,-0.052 -0.396,-0.042 -0.4,-0.03 -0.406,-0.021 -0.41,-0.01 -0.416,10e-4 z m -3.949,5.891 1.798,0.867 -0.918,1.856 -0.953,1.819 -0.981,1.791 -1.017,1.758 -1.049,1.725 -1.081,1.692 -1.116,1.66 -1.145,1.622 -1.177,1.594 -1.213,1.561 -1.244,1.524 -1.275,1.495 -1.309,1.463 -1.34,1.425 -1.371,1.393 -1.408,1.36 -1.436,1.33 -1.471,1.295 -1.5,1.261 -1.535,1.225 -1.567,1.195 -1.595,1.159 -1.631,1.13 -1.663,1.093 -1.695,1.061 -1.727,1.027 -1.759,0.994 -1.79,0.958 -1.822,0.929 -1.854,0.892 -1.886,0.863 -1.918,0.826 -0.767,-1.844 1.88,-0.811 1.847,-0.84 1.815,-0.876 1.783,-0.905 1.751,-0.942 1.72,-0.971 1.688,-1.004 1.656,-1.037 1.623,-1.069 1.592,-1.099 1.564,-1.136 1.528,-1.164 1.496,-1.201 1.468,-1.229 1.433,-1.264 1.404,-1.292 1.368,-1.328 1.341,-1.361 1.309,-1.394 1.277,-1.424 1.244,-1.456 1.213,-1.492 1.182,-1.522 1.153,-1.555 1.121,-1.591 1.085,-1.62 1.058,-1.653 1.025,-1.687 0.993,-1.719 0.966,-1.752 0.93,-1.789 z" id="path216"/>
    </g>
    <text style="fill: rgb(51, 51, 51); font-family: Arial, sans-serif; font-size: 18px; font-weight: 700; white-space: pre; transform-box: fill-box; transform-origin: -24.3678% 50%;" x="364.857" y="309.469">TO BE COMPLETED</text>
  </g>
</svg>