<?xml version="1.0" encoding="UTF-8" standalone="no"?>
<svg
   xmlns:dc="http://purl.org/dc/elements/1.1/"
   xmlns:cc="http://creativecommons.org/ns#"
   xmlns:rdf="http://www.w3.org/1999/02/22-rdf-syntax-ns#"
   xmlns:svg="http://www.w3.org/2000/svg"
   xmlns="http://www.w3.org/2000/svg"
   xmlns:sodipodi="http://sodipodi.sourceforge.net/DTD/sodipodi-0.dtd"
   xmlns:inkscape="http://www.inkscape.org/namespaces/inkscape"
   version="1.1"
   x="0px"
   y="0px"
   width="312.13409"
   height="294.80368"
   viewBox="0 0 312.1341 294.80369"
   xml:lang="mul"
   id="svg350"
   sodipodi:docname="Longitude_of_the_Earth fr ok modif.svg"
   inkscape:version="0.92.4 (5da689c313, 2019-01-14)">
  <defs
     id="defs354" />
  <sodipodi:namedview
     pagecolor="#ffffff"
     bordercolor="#666666"
     borderopacity="1"
     objecttolerance="10"
     gridtolerance="10"
     guidetolerance="10"
     inkscape:pageopacity="0"
     inkscape:pageshadow="2"
     inkscape:window-width="1920"
     inkscape:window-height="1019"
     id="namedview352"
     showgrid="false"
     inkscape:zoom="1.362028"
     inkscape:cx="-18.708584"
     inkscape:cy="192.07922"
     inkscape:window-x="-9"
     inkscape:window-y="-9"
     inkscape:window-maximized="1"
     inkscape:current-layer="g198"
     fit-margin-top="0"
     fit-margin-left="0"
     fit-margin-right="0"
     fit-margin-bottom="0" />
  <title
     id="title2">Latitude and Longitude of the Earth</title>
  <desc
     id="desc4">Illustration of geographic latitude and longitude of the earth.</desc>
  <metadata
     id="metadata6">
    <rdf:RDF>
      <rdf:Description
         rdf:about="">
        <dc:title
           xml:lang="ja">地球の緯度及び経度</dc:title>
        <dc:title
           xml:lang="x-default">Latitude and Longitude of the Earth</dc:title>
        <dc:creator
           rdf:resource="https://meta.wikimedia.org/?curid=10484470" />
        <dc:subject
           rdf:resource="https://www.wikidata.org/wiki/Q2" />
        <dc:subject
           rdf:resource="https://www.wikidata.org/wiki/Q34027" />
        <dc:subject
           rdf:resource="https://www.wikidata.org/wiki/Q36477" />
        <dc:description
           xml:lang="x-default"
           rdf:parseType="Resource">
          <dc:format
             rdf:datatype="http://purl.org/dc/terms/IMT">text/x-wiki</dc:format>
          <rdf:value><![CDATA[
Illustration of geographic [[w:latitude|]] and [[w:longitude|]] of the [[w:earth|]].
]]><!--  -->
</rdf:value>
        </dc:description>
        <dc:contributor
           rdf:resource="https://commons.wikimedia.org/?curid=13862827" />
        <dc:contributor
           rdf:resource="https://meta.wikimedia.org/?curid=7936822" />
        <dc:date
           rdf:datatype="http://www.w3.org/2001/XMLSchemadate">2011-05-30</dc:date>
        <dc:type
           rdf:datatype="http://purl.org/dc/terms/DCMIType">StillImage</dc:type>
        <dc:format
           rdf:datatype="http://purl.org/dc/terms/IMT">image/svg+xml</dc:format>
        <dc:language
           rdf:datatype="http://purl.org/dc/terms/ISO639-2">mul</dc:language>
        <dc:rights
           rdf:resource="https://creativecommons.org/publicdomain/zero/1.0/deed" />
      </rdf:Description>
      <cc:Work
         rdf:about="">
        <dc:format>image/svg+xml</dc:format>
        <dc:type
           rdf:resource="http://purl.org/dc/dcmitype/StillImage" />
        <dc:title>Latitude and Longitude of the Earth</dc:title>
      </cc:Work>
    </rdf:RDF>
  </metadata>
  <g
     id="g348"
     style="font-family:'Liberation Sans', Dyuthi, 'VL PGothic', sans-serif"
     transform="translate(-340.99201,-28.793115)">
    <path
       d="m 497.564,43.682 c 68.356,0 123.791,55.256 123.791,123.393 0,68.137 -55.435,123.393 -123.791,123.393 -68.355,0 -123.79,-55.256 -123.79,-123.393 0,-68.137 55.435,-123.393 123.79,-123.393 z"
       id="path62"
       inkscape:connector-curvature="0"
       style="clip-rule:evenodd;fill:#00aeef;fill-rule:evenodd" />
    <path
       stroke-miterlimit="22.9256"
       d="m 497.564,43.682 c 68.356,0 123.791,55.256 123.791,123.393 0,68.137 -55.435,123.393 -123.791,123.393 -68.355,0 -123.79,-55.256 -123.79,-123.393 0,-68.137 55.435,-123.393 123.79,-123.393 z"
       id="path64"
       inkscape:connector-curvature="0"
       style="fill:none;stroke:#000000;stroke-width:0.56690001;stroke-miterlimit:22.92560005" />
    <path
       d="m 530.087,78.24 c 3.168,0.236 7.344,19.041 7.344,23.355 0,10.808 -6.906,0.508 -14.688,0.508 -5.721,0 -7.013,11.866 -9.966,14.724 -12.51,12.109 -10.484,26.395 3.147,13.201 0.9,-0.871 7.868,-18.333 7.868,-11.678 0,15.408 10.347,17.121 -10.491,24.878 -13.661,5.086 -13.942,12.074 -15.735,25.386 -0.328,2.434 -13.89,-1.65 -17.834,0.508 -5.146,2.814 5.985,28.259 20.456,8.123 13.625,-18.957 35.736,2.98 44.585,-5.585 12.013,-11.627 34.129,21.131 41.963,30.464 17.152,20.436 40.887,-31.033 16.26,-27.925 -15.401,1.943 -7.28,4.208 0,-6.093 11.316,-16.009 17.834,3.669 17.834,-10.155 0,-57.186 -49.128,-106.893 -104.836,-115.497 -22.786,-3.52 -46.941,-1.109 -69.018,11.646 -0.712,0.411 -1.155,-1.572 -1.863,-1.14 -1.394,0.85 -3.322,2.141 -4.699,2.829 -5.97,2.984 -11.108,7.107 -15.225,9.729 -22.227,14.157 -25.759,19.085 -35.476,39.952 -1.821,3.912 -5.632,6.749 -7.745,12.08 -0.487,1.229 -0.508,3.816 -1.154,5.075 -0.221,0.429 -0.447,1.12 -0.648,1.55 -11.456,24.442 -7.221,47.392 -3.241,76.933 1.594,11.834 14.274,29.48 19.962,39.335 12.718,22.035 39.51,28.12 15.706,-0.24 -25.169,-29.987 -36.192,-47.152 -36.192,-96.467 0,-17.001 54.551,-19.262 54.551,-26.909 0,-22.293 38.128,-27.571 3.147,-31.986 -4.247,-0.536 7.775,-5.849 9.966,-6.093 27.086,-3.024 20.756,-8.895 15.211,11.677 -2.731,10.136 -20.252,18.428 1.049,15.74 25.575,-3.228 15.022,-12.048 25.645,-28.499 0.414,-0.643 -2.439,-3.249 -10.298,-3.44 -4.116,-0.101 -9.361,2.175 -13.063,0.373 -5.469,-2.664 -9.044,-13.061 -9.066,-17.395 -0.023,-4.6 4.409,-8.539 8.348,-10.299 5.485,-2.451 9.778,-0.491 18.637,0.415 13.819,1.412 32.904,3.598 39.988,8.166 8.823,5.689 6.053,22.754 9.571,22.754 z"
       id="path66"
       inkscape:connector-curvature="0"
       style="clip-rule:evenodd;fill:#fff200;fill-rule:evenodd" />
    <path
       stroke-miterlimit="22.9256"
       d="m 530.087,78.24 c 3.168,0.236 7.344,19.041 7.344,23.355 0,10.808 -6.906,0.508 -14.688,0.508 -5.721,0 -7.013,11.866 -9.966,14.724 -12.51,12.109 -10.484,26.395 3.147,13.201 0.9,-0.871 7.868,-18.333 7.868,-11.678 0,15.408 10.347,17.121 -10.491,24.878 -13.661,5.086 -13.942,12.074 -15.735,25.386 -0.328,2.434 -13.89,-1.65 -17.834,0.508 -5.146,2.814 5.985,28.259 20.456,8.123 13.625,-18.957 35.736,2.98 44.585,-5.585 12.013,-11.627 34.129,21.131 41.963,30.464 17.152,20.436 40.887,-31.033 16.26,-27.925 -15.401,1.943 -7.28,4.208 0,-6.093 11.316,-16.009 17.834,3.669 17.834,-10.155 0,-57.186 -49.128,-106.893 -104.836,-115.497 -22.786,-3.52 -46.941,-1.109 -69.018,11.646 -0.712,0.411 -1.155,-1.572 -1.863,-1.14 -1.394,0.85 -3.322,2.141 -4.699,2.829 -5.97,2.984 -11.108,7.107 -15.225,9.729 -22.227,14.157 -25.759,19.085 -35.476,39.952 -1.821,3.912 -5.632,6.749 -7.745,12.08 -0.487,1.229 -0.508,3.816 -1.154,5.075 -0.221,0.429 -0.447,1.12 -0.648,1.55 -11.456,24.442 -7.221,47.392 -3.241,76.933 1.594,11.834 14.274,29.48 19.962,39.335 12.718,22.035 39.51,28.12 15.706,-0.24 -25.169,-29.987 -36.192,-47.152 -36.192,-96.467 0,-17.001 54.551,-19.262 54.551,-26.909 0,-22.293 38.128,-27.571 3.147,-31.986 -4.247,-0.536 7.775,-5.849 9.966,-6.093 27.086,-3.024 20.756,-8.895 15.211,11.677 -2.731,10.136 -20.252,18.428 1.049,15.74 25.575,-3.228 15.022,-12.048 25.645,-28.499 0.414,-0.643 -2.439,-3.249 -10.298,-3.44 -4.116,-0.101 -9.361,2.175 -13.063,0.373 -5.469,-2.664 -9.044,-13.061 -9.066,-17.395 -0.023,-4.6 4.409,-8.539 8.348,-10.299 5.485,-2.451 9.778,-0.491 18.637,0.415 13.819,1.412 32.904,3.598 39.988,8.166 8.823,5.689 6.053,22.754 9.571,22.754 z"
       id="path68"
       inkscape:connector-curvature="0"
       style="fill:none;stroke:#000000;stroke-width:0.56690001;stroke-miterlimit:22.92560005" />
    <path
       d="m 527.464,283.867 c 0,-4.783 6.715,-9.58 3.672,-12.185 -17.984,-15.399 -16.48,-18.278 -46.683,-18.278 -15.802,0 -24.129,-11.526 -24.129,-27.417 0,-8.249 13.183,-27.743 19.933,-29.447 5.091,-1.286 28.49,-6.792 34.095,-9.646 10.043,-5.118 3.341,10.661 19.407,10.661 13.471,0 6.46,-7.615 21.506,-7.615 21.291,0 14.512,13.487 31.472,19.801 9.687,3.606 15.035,-12.839 12.589,9.647 -2.25,20.666 -1.804,26.16 -21.506,41.633 -9.333,7.329 -19.911,14.402 -31.048,18.82 -6.248,2.477 -12.305,5.219 -19.308,4.026 z"
       id="path70"
       inkscape:connector-curvature="0"
       style="clip-rule:evenodd;fill:#fff200;fill-rule:evenodd" />
    <path
       stroke-miterlimit="22.9256"
       d="m 527.464,283.867 c 0,-4.783 6.715,-9.58 3.672,-12.185 -17.984,-15.399 -16.48,-18.278 -46.683,-18.278 -15.802,0 -24.129,-11.526 -24.129,-27.417 0,-8.249 13.183,-27.743 19.933,-29.447 5.091,-1.286 28.49,-6.792 34.095,-9.646 10.043,-5.118 3.341,10.661 19.407,10.661 13.471,0 6.46,-7.615 21.506,-7.615 21.291,0 14.512,13.487 31.472,19.801 9.687,3.606 15.035,-12.839 12.589,9.647 -2.25,20.666 -1.804,26.16 -21.506,41.633 -9.333,7.329 -19.911,14.402 -31.048,18.82 -6.248,2.477 -12.305,5.219 -19.308,4.026 z"
       id="path72"
       inkscape:connector-curvature="0"
       style="fill:none;stroke:#000000;stroke-width:0.56690001;stroke-miterlimit:22.92560005" />
    <path
       d="m 475.012,114.288 c -1.006,2.108 -1.508,2.694 -0.525,4.063 0.588,0.817 1.176,1.645 1.574,2.031 0.706,0.683 1.049,2.646 1.049,4.062 0,1.269 0.077,0.941 -0.524,1.523 -0.316,0.306 -2.58,1.715 -2.622,2.031 -0.045,0.333 -0.092,3.466 0,3.554 0.146,0.142 3.241,0 3.671,0 1.558,0 1.5,-0.259 2.623,-1.015 0.542,-0.365 1.264,-1.731 1.573,-2.031 1.27,-1.229 0,-3.2 0,-5.078 0,-1.881 0.631,-6.029 0,-7.616 -0.686,-1.727 -6.308,-1.016 -6.819,-1.524 z"
       id="path74"
       inkscape:connector-curvature="0"
       style="clip-rule:evenodd;fill:#fff200;fill-rule:evenodd" />
    <path
       stroke-miterlimit="22.9256"
       d="m 475.012,114.288 c -1.006,2.108 -1.508,2.694 -0.525,4.063 0.588,0.817 1.176,1.645 1.574,2.031 0.706,0.683 1.049,2.646 1.049,4.062 0,1.269 0.077,0.941 -0.524,1.523 -0.316,0.306 -2.58,1.715 -2.622,2.031 -0.045,0.333 -0.092,3.466 0,3.554 0.146,0.142 3.241,0 3.671,0 1.558,0 1.5,-0.259 2.623,-1.015 0.542,-0.365 1.264,-1.731 1.573,-2.031 1.27,-1.229 0,-3.2 0,-5.078 0,-1.881 0.631,-6.029 0,-7.616 -0.686,-1.727 -6.308,-1.016 -6.819,-1.524 z"
       id="path76"
       inkscape:connector-curvature="0"
       style="fill:none;stroke:#000000;stroke-width:0.56690001;stroke-miterlimit:22.92560005" />
    <path
       d="m 490.747,133.074 c -0.695,2.917 -0.631,4.968 0,7.616 0.465,1.949 2.068,2.159 2.623,3.554 1.069,2.691 -1.433,3.01 -1.574,4.062 -0.149,1.113 -0.149,2.949 0,4.062 0.14,1.037 1.278,1.185 2.623,1.015 0.542,-0.068 2.968,-10.851 3.147,-12.185 0.211,-1.573 -3.581,-10.155 -6.819,-8.124 z"
       id="path78"
       inkscape:connector-curvature="0"
       style="clip-rule:evenodd;fill:#fff200;fill-rule:evenodd" />
    <path
       stroke-miterlimit="22.9256"
       d="m 490.747,133.074 c -0.695,2.917 -0.631,4.968 0,7.616 0.465,1.949 2.068,2.159 2.623,3.554 1.069,2.691 -1.433,3.01 -1.574,4.062 -0.149,1.113 -0.149,2.949 0,4.062 0.14,1.037 1.278,1.185 2.623,1.015 0.542,-0.068 2.968,-10.851 3.147,-12.185 0.211,-1.573 -3.581,-10.155 -6.819,-8.124 z"
       id="path80"
       inkscape:connector-curvature="0"
       style="fill:none;stroke:#000000;stroke-width:0.56690001;stroke-miterlimit:22.92560005" />
    <path
       d="m 482.354,147.291 c 0.283,-0.823 0.637,-1.262 1.05,-2.031 0.161,-0.3 -0.186,-0.729 0,-1.015 0.185,-0.287 0.277,-0.269 0.524,-0.508 l 0.524,-0.508 c 0.612,-0.593 -0.654,-0.867 0.524,-1.016 1.393,-0.175 1.938,0.175 2.098,1.523 0.04,0.336 -0.185,0.729 0,1.015 0.425,0.657 0.524,0.531 0.524,2.031 0,0.739 0.213,1.027 -0.524,1.523 -0.731,0.493 -0.892,-0.305 -1.573,0.508 -0.221,0.262 0.247,0.776 0,1.016 -0.358,0.347 -1.389,-0.191 -1.573,-0.508 -0.123,-0.213 -0.449,-1.737 -1.574,-2.03 z"
       id="path82"
       inkscape:connector-curvature="0"
       style="clip-rule:evenodd;fill:#fff200;fill-rule:evenodd" />
    <path
       stroke-miterlimit="22.9256"
       d="m 482.354,147.291 c 0.283,-0.823 0.637,-1.262 1.05,-2.031 0.161,-0.3 -0.186,-0.729 0,-1.015 0.185,-0.287 0.277,-0.269 0.524,-0.508 l 0.524,-0.508 c 0.612,-0.593 -0.654,-0.867 0.524,-1.016 1.393,-0.175 1.938,0.175 2.098,1.523 0.04,0.336 -0.185,0.729 0,1.015 0.425,0.657 0.524,0.531 0.524,2.031 0,0.739 0.213,1.027 -0.524,1.523 -0.731,0.493 -0.892,-0.305 -1.573,0.508 -0.221,0.262 0.247,0.776 0,1.016 -0.358,0.347 -1.389,-0.191 -1.573,-0.508 -0.123,-0.213 -0.449,-1.737 -1.574,-2.03 z"
       id="path84"
       inkscape:connector-curvature="0"
       style="fill:none;stroke:#000000;stroke-width:0.56690001;stroke-miterlimit:22.92560005" />
    <path
       d="m 608.242,208.217 c 0.226,-0.95 -0.682,-2.387 0.524,-3.047 1.795,-0.982 0.568,0.465 1.573,-0.508 0.289,-0.279 0.666,-0.275 1.049,-1.016 0.188,-0.365 0.268,-0.691 0.524,-1.016 0.258,-0.323 0.227,-0.726 0.524,-1.015 0.299,-0.289 0.683,-0.307 1.049,-0.508 1.908,-1.043 2.099,-0.176 2.099,2.03 0,1.743 -0.063,0.302 -0.524,1.016 -0.179,0.277 0.179,1.246 0,1.523 -0.461,0.714 -0.524,-0.728 -0.524,1.016 0,0.338 0.186,0.729 0,1.016 -0.059,0.09 -1.04,1.007 -1.05,1.015 -0.036,0.036 -1.012,0.473 -1.049,0.508 -0.888,0.859 -0.147,-0.037 -1.049,0.508 -0.296,0.18 -0.178,0.464 -0.524,0.508 -1.143,0.145 -2.506,10e-4 -2.622,-2.03 z"
       id="path86"
       inkscape:connector-curvature="0"
       style="clip-rule:evenodd;fill:#fff200;fill-rule:evenodd" />
    <path
       stroke-miterlimit="22.9256"
       d="m 608.242,208.217 c 0.226,-0.95 -0.682,-2.387 0.524,-3.047 1.795,-0.982 0.568,0.465 1.573,-0.508 0.289,-0.279 0.666,-0.275 1.049,-1.016 0.188,-0.365 0.268,-0.691 0.524,-1.016 0.258,-0.323 0.227,-0.726 0.524,-1.015 0.299,-0.289 0.683,-0.307 1.049,-0.508 1.908,-1.043 2.099,-0.176 2.099,2.03 0,1.743 -0.063,0.302 -0.524,1.016 -0.179,0.277 0.179,1.246 0,1.523 -0.461,0.714 -0.524,-0.728 -0.524,1.016 0,0.338 0.186,0.729 0,1.016 -0.059,0.09 -1.04,1.007 -1.05,1.015 -0.036,0.036 -1.012,0.473 -1.049,0.508 -0.888,0.859 -0.147,-0.037 -1.049,0.508 -0.296,0.18 -0.178,0.464 -0.524,0.508 -1.143,0.145 -2.506,10e-4 -2.622,-2.03 z"
       id="path88"
       inkscape:connector-curvature="0"
       style="fill:none;stroke:#000000;stroke-width:0.56690001;stroke-miterlimit:22.92560005" />
    <path
       stroke-miterlimit="22.9256"
       d="m 497.399,42.009 c 68.979,0 124.918,55.431 124.918,123.782 0,68.351 -55.938,123.783 -124.918,123.783 -68.979,0 -124.917,-55.432 -124.917,-123.783 0,-68.351 55.939,-123.782 124.917,-123.782 z"
       id="path94"
       inkscape:connector-curvature="0"
       style="fill:none;stroke:#000000;stroke-width:2.9999001;stroke-miterlimit:22.92560005" />
    <path
       stroke-miterlimit="22.9256"
       d="m 499.104,75.3 c 0,137.027 0,210.101 0,214.274"
       id="path96"
       inkscape:connector-curvature="0"
       style="fill:none;stroke:#000000;stroke-width:2.9999001;stroke-miterlimit:22.92560005;stroke-dasharray:6, 3" />
    <path
       stroke-miterlimit="22.9256"
       d="m 526.588,285.599 c 14.691,-42.586 5.91,-116.212 -27.481,-214.064"
       id="path98"
       inkscape:connector-curvature="0"
       style="fill:none;stroke:#000000;stroke-width:1.00010002;stroke-miterlimit:22.92560005" />
    <path
       stroke-miterlimit="22.9256"
       d="m 499.671,71.535 c 53.374,75.431 71.732,145.556 53.942,205.263"
       id="path100"
       inkscape:connector-curvature="0"
       style="fill:none;stroke:#000000;stroke-width:1.00010002;stroke-miterlimit:22.92560005" />
    <path
       stroke-miterlimit="22.9256"
       d="m 500.239,70.967 c 66.706,54.015 94.47,118.461 83.076,184.822"
       id="path102"
       inkscape:connector-curvature="0"
       style="fill:none;stroke:#000000;stroke-width:1.00010002;stroke-miterlimit:22.92560005" />
    <path
       stroke-miterlimit="22.9256"
       d="M 602.092,231.657 C 616.218,176.959 582.173,117.339 501.091,70.968"
       id="path104"
       inkscape:connector-curvature="0"
       style="fill:none;stroke:#000000;stroke-width:1.00010002;stroke-miterlimit:22.92560005" />
    <path
       stroke-miterlimit="22.9256"
       d="m 501.091,70.683 c 80.163,24.887 118.77,75.428 115.833,124.35"
       id="path106"
       inkscape:connector-curvature="0"
       style="fill:none;stroke:#000000;stroke-width:1.00010002;stroke-miterlimit:22.92560005" />
    <path
       stroke-miterlimit="22.9256"
       d="M 620.798,150.076 C 596.785,99.902 551.824,69.529 500.479,70.116"
       id="path108"
       inkscape:connector-curvature="0"
       style="fill:none;stroke:#000000;stroke-width:1.00010002;stroke-miterlimit:22.92560005" />
    <path
       stroke-miterlimit="22.9256"
       d="M 607.271,105.669 C 576.709,72.346 539.518,59.227 500.807,68.584 c 5.349,-5.817 24.615,-10.219 44.899,-8.638 6.807,0.53 13.56,2.749 20.111,4.78 3.675,1.139 6.086,2.219 9.609,2.908"
       id="path110"
       inkscape:connector-curvature="0"
       style="fill:none;stroke:#000000;stroke-width:1.00010002;stroke-miterlimit:22.92560005" />
    <path
       stroke-miterlimit="22.9256"
       d="m 533.052,46.813 c -16.856,6.039 -29.891,15.66 -33.665,23.711"
       id="path112"
       inkscape:connector-curvature="0"
       style="fill:none;stroke:#000000;stroke-width:1.00010002;stroke-miterlimit:22.92560005" />
    <path
       stroke-miterlimit="22.9256"
       d="m 514.419,44.265 c -7.949,7.507 -12.666,15.598 -15.315,23.106"
       id="path114"
       inkscape:connector-curvature="0"
       style="fill:none;stroke:#000000;stroke-width:1.00010002;stroke-miterlimit:22.92560005" />
    <path
       stroke-miterlimit="22.9256"
       d="m 479.305,43.084 c 14.283,6 18.754,16.177 19.239,25.869"
       id="path116"
       inkscape:connector-curvature="0"
       style="fill:none;stroke:#000000;stroke-width:1.00010002;stroke-miterlimit:22.92560005" />
    <path
       stroke-miterlimit="22.9256"
       d="m 456.339,48.39 c 20.193,-0.212 32.769,8.045 40.209,18.886"
       id="path118"
       inkscape:connector-curvature="0"
       style="fill:none;stroke:#000000;stroke-width:1.00010002;stroke-miterlimit:22.92560005" />
    <path
       stroke-miterlimit="22.9256"
       d="M 496.832,68.022 C 459.847,55.009 427.664,61.196 400.285,86.582"
       id="path120"
       inkscape:connector-curvature="0"
       style="fill:none;stroke:#000000;stroke-width:1.00010002;stroke-miterlimit:22.92560005" />
    <path
       stroke-miterlimit="22.9256"
       d="M 497.116,69.266 C 462.409,61.67 425.785,72.458 393.207,97.087"
       id="path122"
       inkscape:connector-curvature="0"
       style="fill:none;stroke:#000000;stroke-width:1.00010002;stroke-miterlimit:22.92560005" />
    <path
       stroke-miterlimit="22.9256"
       d="m 498.325,69.622 c -23.903,-4.254 -52.099,6.303 -82.098,24.414 -12.774,7.712 -30.421,27.667 -39.644,41.03"
       id="path124"
       inkscape:connector-curvature="0"
       style="fill:none;stroke:#000000;stroke-width:1.00010002;stroke-miterlimit:22.92560005" />
    <path
       stroke-miterlimit="22.9256"
       d="M 495.128,71.132 C 452.529,85.524 402.361,92.416 374.071,179.709"
       id="path126"
       inkscape:connector-curvature="0"
       style="fill:none;stroke:#000000;stroke-width:1.00010002;stroke-miterlimit:22.92560005" />
    <path
       stroke-miterlimit="22.9256"
       d="M 385.825,219.356 C 386.214,162.75 424.259,106.851 497.688,69.832 435.914,117.429 405.25,182.328 409.136,252.449"
       id="path128"
       inkscape:connector-curvature="0"
       style="fill:none;stroke:#000000;stroke-width:1.00010002;stroke-miterlimit:22.92560005" />
    <path
       stroke-miterlimit="22.9256"
       d="m 497.874,70.399 c -53.887,72.109 -72.826,143.976 -58.521,205.113"
       id="path130"
       inkscape:connector-curvature="0"
       style="fill:none;stroke:#000000;stroke-width:1.00010002;stroke-miterlimit:22.92560005" />
    <path
       stroke-miterlimit="22.9256"
       d="m 498.243,71.251 c -31.172,90.377 -39.426,163.53 -25.898,215.483"
       id="path132"
       inkscape:connector-curvature="0"
       style="fill:none;stroke:#000000;stroke-width:1.00010002;stroke-miterlimit:22.92560005" />
    <path
       stroke-miterlimit="22.9256"
       d="m 498.805,41.745 c 0,27.489 0,36.399 0,26.73"
       id="path144"
       inkscape:connector-curvature="0"
       style="fill:none;stroke:#000000;stroke-width:1.00010002;stroke-miterlimit:22.92560005" />
    <path
       stroke-miterlimit="22.9256"
       d="M 497.328,68.088 C 470.519,55.266 448.373,52.546 430.889,59.929"
       id="path146"
       inkscape:connector-curvature="0"
       style="fill:none;stroke:#000000;stroke-width:1.00010002;stroke-miterlimit:22.92560005" />
    <path
       stroke-miterlimit="22.9256"
       d="m 553.86,54.684 c -17.483,-2.719 -32.929,2.72 -55.075,13.987"
       id="path148"
       inkscape:connector-curvature="0"
       style="fill:none;stroke:#000000;stroke-width:1.00010002;stroke-miterlimit:22.92560005" />
    <g
       font-size="16"
       id="g198"
       style="font-size:16px">
      <switch
         transform="translate(445.625,322.6509)"
         id="switch196">
        <text
           systemLanguage="en"
           id="trsvg56">
          <tspan
             id="trsvg13">Prime Meridian</tspan>
        </text>
        <text
           systemLanguage="ja"
           id="trsvg57">
          <tspan
             id="trsvg14">本初子午線</tspan>
        </text>
        <text
           systemLanguage="ml"
           id="trsvg58">
          <tspan
             id="trsvg15">ഗ്രീനിച്ച് രേഖ</tspan>
        </text>
        <text
           id="trsvg59-ar"
           systemLanguage="ar">
          <tspan
             id="trsvg16-ar">خط الطول الأول</tspan>
        </text>
        <text
           id="trsvg59"
           systemLanguage="fr"
           style="font-style:normal;font-variant:normal;font-weight:normal;font-stretch:normal;font-size:16px;font-family:'Liberation Sans', Dyuthi, 'VL PGothic', sans-serif;-inkscape-font-specification:'Liberation Sans, Dyuthi, VL PGothic, sans-serif, Normal';font-variant-ligatures:normal;font-variant-caps:normal;font-variant-numeric:normal;font-feature-settings:normal;text-align:start;writing-mode:lr-tb;text-anchor:start">
          <tspan
             sodipodi:role="line"
             id="tspan1260"
             x="0"
             y="0">Premier méridien</tspan>
        </text>
      </switch>
    </g>
    <g
       font-size="16"
       id="g230"
       style="font-size:16px"
       transform="translate(6,6)">
      <path
         d="m 619.013,249.169 -0.675,15.183 -0.258,-0.325 -0.264,-0.315 -0.269,-0.305 -0.273,-0.294 -0.278,-0.283 -0.284,-0.273 -0.289,-0.263 -0.293,-0.252 -0.3,-0.241 -0.304,-0.231 -0.31,-0.221 -0.313,-0.21 -0.319,-0.199 -0.324,-0.188 -0.33,-0.179 -0.334,-0.167 -0.34,-0.157 -0.345,-0.147 -0.35,-0.136 -0.354,-0.126 -0.36,-0.115 -0.365,-0.104 -0.369,-0.094 -0.376,-0.083 -0.38,-0.073 -0.386,-0.063 -0.39,-0.052 -0.396,-0.042 -0.4,-0.03 -0.406,-0.021 -0.41,-0.01 -0.416,10e-4 z m -3.949,5.891 1.798,0.867 -0.918,1.856 -0.953,1.819 -0.981,1.791 -1.017,1.758 -1.049,1.725 -1.081,1.692 -1.116,1.66 -1.145,1.622 -1.177,1.594 -1.213,1.561 -1.244,1.524 -1.275,1.495 -1.309,1.463 -1.34,1.425 -1.371,1.393 -1.408,1.36 -1.436,1.33 -1.471,1.295 -1.5,1.261 -1.535,1.225 -1.567,1.195 -1.595,1.159 -1.631,1.13 -1.663,1.093 -1.695,1.061 -1.727,1.027 -1.759,0.994 -1.79,0.958 -1.822,0.929 -1.854,0.892 -1.886,0.863 -1.918,0.826 -0.767,-1.844 1.88,-0.811 1.847,-0.84 1.815,-0.876 1.783,-0.905 1.751,-0.942 1.72,-0.971 1.688,-1.004 1.656,-1.037 1.623,-1.069 1.592,-1.099 1.564,-1.136 1.528,-1.164 1.496,-1.201 1.468,-1.229 1.433,-1.264 1.404,-1.292 1.368,-1.328 1.341,-1.361 1.309,-1.394 1.277,-1.424 1.244,-1.456 1.213,-1.492 1.182,-1.522 1.153,-1.555 1.121,-1.591 1.085,-1.62 1.058,-1.653 1.025,-1.687 0.993,-1.719 0.966,-1.752 0.93,-1.789 z"
         id="path216"
         inkscape:connector-curvature="0" />
      <switch
         transform="matrix(0.7857,-0.6186,0.6186,0.7857,578.2715,318.4087)"
         id="switch228">
        <text
           systemLanguage="en"
           id="trsvg64">
          <tspan
             id="trsvg21">Longitude</tspan>
        </text>
        <text
           systemLanguage="ja"
           dx="13"
           dy="-2"
           id="trsvg65">
          <tspan
             id="trsvg22">緯度</tspan>
        </text>
        <text
           systemLanguage="ml"
           id="trsvg66">
          <tspan
             id="trsvg23">രേഖാംശം</tspan>
        </text>
        <text
           id="trsvg67-ar"
           systemLanguage="ar">
          <tspan
             id="trsvg24-ar">خط الطول</tspan>
        </text>
        <text
           systemLanguage="fr"
           id="trsvg67">
          <tspan
             id="trsvg24">Longitude</tspan>
        </text>
      </switch>
    </g>
    <switch
       style="font-size:13.6619997px"
       id="switch278"
       transform="translate(495.9609,306.4302)">
      <text
         systemLanguage="ar"
         id="trsvg75-ar">
        <tspan
           id="trsvg32-ar">0°</tspan>
      </text>
      <text
         id="trsvg75">
        <tspan
           id="trsvg32">0°</tspan>
      </text>
    </switch>
    <switch
       style="font-size:13.6619997px"
       id="switch284"
       transform="translate(549.6963,289.4185)">
      <text
         systemLanguage="ar"
         id="trsvg76-ar">
        <tspan
           id="trsvg33-ar">30°</tspan>
      </text>
      <text
         id="trsvg76">
        <tspan
           id="trsvg33">30°E</tspan>
      </text>
    </switch>
    <switch
       style="font-size:13.6619997px"
       id="switch290"
       transform="translate(600.6074,250.4692)">
      <text
         systemLanguage="ar"
         id="trsvg77-ar">
        <tspan
           id="trsvg34-ar">60°</tspan>
      </text>
      <text
         id="trsvg77">
        <tspan
           id="trsvg34">60°E</tspan>
      </text>
    </switch>
    <switch
       style="font-size:13.6619997px"
       id="switch296"
       transform="translate(623.9209,159.0425)">
      <text
         systemLanguage="ar"
         id="trsvg78-ar">
        <tspan
           id="trsvg35-ar">90°</tspan>
      </text>
      <text
         id="trsvg78">
        <tspan
           id="trsvg35">90°E</tspan>
      </text>
    </switch>
    <switch
       style="font-size:13.6619997px"
       id="switch302"
       transform="translate(581.5859,69.8296)">
      <text
         systemLanguage="ar"
         id="trsvg79-ar">
        <tspan
           id="trsvg36-ar">120°</tspan>
      </text>
      <text
         id="trsvg79">
        <tspan
           id="trsvg36">120°E</tspan>
      </text>
    </switch>
    <switch
       style="font-size:13.6619997px"
       id="switch308"
       transform="translate(532.2969,45.0679)">
      <text
         systemLanguage="ar"
         id="trsvg80-ar">
        <tspan
           id="trsvg37-ar">150°</tspan>
      </text>
      <text
         id="trsvg80">
        <tspan
           id="trsvg37">150°E</tspan>
      </text>
    </switch>
    <switch
       style="font-size:13.6619997px"
       id="switch314"
       transform="translate(487.998,38.3325)">
      <text
         systemLanguage="ar"
         id="trsvg81-ar">
        <tspan
           id="trsvg38-ar">180°</tspan>
      </text>
      <text
         id="trsvg81">
        <tspan
           id="trsvg38">180°</tspan>
      </text>
    </switch>
    <switch
       style="font-size:13.6619997px"
       id="switch320"
       transform="translate(417.9746,46.8159)">
      <text
         systemLanguage="ar"
         id="trsvg82-ar">
        <tspan
           id="trsvg39-ar">-150°</tspan>
      </text>
      <text
         id="trsvg82">
        <tspan
           id="trsvg39">150°O</tspan>
      </text>
    </switch>
    <switch
       style="font-size:13.6619997px"
       id="switch326"
       transform="translate(364.0684,83.3662)">
      <text
         systemLanguage="ar"
         id="trsvg83-ar">
        <tspan
           id="trsvg40-ar">-120°</tspan>
      </text>
      <text
         id="trsvg83">
        <tspan
           id="trsvg40">120°O</tspan>
      </text>
    </switch>
    <switch
       style="font-size:13.6619997px"
       id="switch332"
       transform="translate(340.3516,145.0132)">
      <text
         systemLanguage="ar"
         id="trsvg84-ar">
        <tspan
           id="trsvg41-ar">-90°</tspan>
      </text>
      <text
         id="trsvg84">
        <tspan
           id="trsvg41">90°O</tspan>
      </text>
    </switch>
    <switch
       style="font-size:13.6619997px"
       id="switch338"
       transform="translate(358.6191,242.5522)">
      <text
         systemLanguage="ar"
         id="trsvg85-ar">
        <tspan
           id="trsvg42-ar">-60°</tspan>
      </text>
      <text
         id="trsvg85">
        <tspan
           id="trsvg42">60°O</tspan>
      </text>
    </switch>
    <switch
       style="font-size:13.6619997px"
       id="switch344"
       transform="translate(424.5752,294.5552)">
      <text
         systemLanguage="ar"
         id="trsvg86-ar">
        <tspan
           id="trsvg43-ar">-30°</tspan>
      </text>
      <text
         id="trsvg86">
        <tspan
           id="trsvg43">30°O</tspan>
      </text>
    </switch>
    <!--
<switch transform="matrix(1.0765 0 0 1 501.9297 298.2935)"><text font-size="10.0821">o</text></switch>
<switch transform="matrix(1.0765 0 0 1 508.9297 29.2935)"><text font-size="10.0821">o</text></switch>
<switch transform="matrix(1.0765 0 0 1 368.4297 133.7935)"><text font-size="10.0821">o</text></switch>
<switch transform="matrix(1.0765 0 0 1 640.4297 148.2935)"><text font-size="10.0821">o</text></switch>
<switch transform="matrix(1.0765 0 0 1 170.4297 29.2935)"><text font-size="10.0821">o</text></switch>
<switch transform="matrix(1.0765 0 0 1 28.4297 160.2935)"><text font-size="10.0821">o</text></switch>
<switch transform="matrix(1.0765 0 0 1 172.4297 296.7935)"><text font-size="10.0821">o</text></switch>
-->
  </g>
</svg>
