<?xml version="1.0" encoding="utf-8"?>
<svg viewBox="0 0 1513 580" xmlns="http://www.w3.org/2000/svg" xmlns:bx="https://boxy-svg.com">
  <defs>
    <bx:guide x="343.806" y="472.273" angle="90"/>
  </defs>
  <rect x="-1.799" y="-0.459" width="1515.606" height="580.758" style="stroke: rgb(0, 0, 0); fill: rgb(255, 255, 255); stroke-width: 0px; pointer-events: none;">
    <title>bg white</title>
  </rect>
  <g style="pointer-events: none;">
    <title>cube</title>
    <g style="pointer-events: none;" transform="matrix(1, 0, 0, 0.984545, 0, 5.812459)">
      <title>v lines</title>
      <rect x="63.849" y="182.499" width="1.497" height="193.6" style="stroke: rgb(0, 0, 0); stroke-width: 0px; fill: rgb(183, 64, 64);"/>
      <rect x="95.558" y="182.499" width="1.497" height="193.6" style="stroke: rgb(0, 0, 0); stroke-width: 0px; fill: rgb(183, 64, 64);"/>
      <rect x="128.075" y="182.499" width="1.497" height="193.6" style="stroke: rgb(0, 0, 0); stroke-width: 0px; fill: rgb(183, 64, 64);"/>
      <rect x="159.247" y="182.499" width="1.497" height="193.6" style="stroke: rgb(0, 0, 0); stroke-width: 0px; fill: rgb(183, 64, 64);"/>
      <rect x="191.225" y="182.499" width="1.497" height="193.6" style="stroke: rgb(0, 0, 0); stroke-width: 0px; fill: rgb(183, 64, 64);"/>
      <rect x="223.472" y="182.499" width="1.497" height="193.6" style="stroke: rgb(0, 0, 0); stroke-width: 0px; fill: rgb(183, 64, 64);"/>
      <rect x="255.182" y="182.499" width="1.497" height="193.6" style="stroke: rgb(0, 0, 0); stroke-width: 0px; fill: rgb(183, 64, 64);"/>
    </g>
    <g style="pointer-events: none; transform-origin: 160.264px 279.299px;" transform="matrix(0, 1, -1.330697, 0, 1.166454, 32.133514)">
      <title>h lines</title>
      <rect x="63.849" y="184.015" width="1.497" height="192.083" style="stroke: rgb(0, 0, 0); stroke-width: 0px; fill: rgb(183, 64, 64);"/>
      <rect x="95.558" y="184.015" width="1.497" height="192.083" style="stroke: rgb(0, 0, 0); stroke-width: 0px; fill: rgb(183, 64, 64);"/>
      <rect x="128.075" y="184.015" width="1.497" height="192.083" style="stroke: rgb(0, 0, 0); stroke-width: 0px; fill: rgb(183, 64, 64);"/>
      <rect x="159.247" y="184.015" width="1.497" height="192.083" style="stroke: rgb(0, 0, 0); stroke-width: 0px; fill: rgb(183, 64, 64);"/>
      <rect x="191.225" y="184.015" width="1.497" height="192.083" style="stroke: rgb(0, 0, 0); stroke-width: 0px; fill: rgb(183, 64, 64);"/>
    </g>
    <g style="pointer-events: none;">
      <title>h o lines</title>
      <line style="fill: rgb(64, 162, 183); stroke-width: 1.5px; stroke: rgb(183, 64, 64);" x1="288.447" y1="215.018" x2="384.061" y2="121.41"/>
      <line style="fill: rgb(64, 162, 183); stroke-width: 1.5px; stroke: rgb(183, 64, 64);" x1="288.447" y1="247.358" x2="384.061" y2="153.016"/>
      <line style="fill: rgb(64, 162, 183); stroke-width: 1.5px; stroke: rgb(183, 64, 64);" x1="288.225" y1="280.2" x2="382.266" y2="185.491"/>
      <line style="fill: rgb(64, 162, 183); stroke-width: 1.5px; stroke: rgb(183, 64, 64);" x1="288.447" y1="311.137" x2="384.061" y2="216.978"/>
      <line style="fill: rgb(64, 162, 183); stroke-width: 1.5px; stroke: rgb(183, 64, 64);" x1="288.447" y1="343.891" x2="382.266" y2="250.283"/>
    </g>
    <g style="pointer-events: none;">
      <title>v o lines</title>
      <line style="fill: rgb(216, 216, 216); stroke-width: 1.5px; stroke: rgb(183, 64, 64);" x1="303.948" y1="168.902" x2="304.132" y2="358.756"/>
      <line style="fill: rgb(216, 216, 216); stroke-width: 1.5px; stroke: rgb(183, 64, 64);" x1="319.454" y1="153.816" x2="319.638" y2="343.891"/>
      <line style="fill: rgb(216, 216, 216); stroke-width: 1.5px; stroke: rgb(183, 64, 64);" x1="335.491" y1="137.28" x2="335.675" y2="326.252"/>
      <line style="fill: rgb(216, 216, 216); stroke-width: 1.5px; stroke: rgb(183, 64, 64);" x1="351.339" y1="121.41" x2="351.523" y2="309.503"/>
      <line style="fill: rgb(216, 216, 216); stroke-width: 1.5px; stroke: rgb(183, 64, 64);" x1="367.406" y1="106.368" x2="367.59" y2="294.461"/>
    </g>
    <g style="pointer-events: none;">
      <title>v t lines</title>
      <line style="fill: rgb(216, 216, 216); stroke-width: 1.5px; stroke: rgb(183, 64, 64);" x1="63.849" y1="185.491" x2="159.019" y2="88.098"/>
      <line style="fill: rgb(216, 216, 216); stroke-width: 1.5px; stroke: rgb(183, 64, 64);" x1="96.474" y1="185.491" x2="191.231" y2="88.098"/>
      <line style="fill: rgb(216, 216, 216); stroke-width: 1.5px; stroke: rgb(183, 64, 64);" x1="129.193" y1="185.491" x2="223.674" y2="88.098"/>
      <line style="fill: rgb(216, 216, 216); stroke-width: 1.5px; stroke: rgb(183, 64, 64);" x1="160.019" y1="185.491" x2="255.189" y2="88.098"/>
      <line style="fill: rgb(216, 216, 216); stroke-width: 1.5px; stroke: rgb(183, 64, 64);" x1="191.231" y1="185.491" x2="286.401" y2="88.098"/>
      <line style="fill: rgb(216, 216, 216); stroke-width: 1.5px; stroke: rgb(183, 64, 64);" x1="223.674" y1="185.491" x2="318.844" y2="88.098"/>
      <line style="fill: rgb(216, 216, 216); stroke-width: 1.5px; stroke: rgb(183, 64, 64);" x1="255.679" y1="185.491" x2="350.849" y2="88.098"/>
    </g>
    <g style="pointer-events: none;">
      <title>h t lines</title>
      <line style="stroke-width: 1.5px; fill: rgb(183, 64, 64); stroke: rgb(183, 64, 64);" x1="48.42" y1="169.578" x2="304.151" y2="169.578"/>
      <line style="stroke-width: 1.5px; fill: rgb(183, 64, 64); stroke: rgb(183, 64, 64);" x1="64.657" y1="152.736" x2="319.767" y2="152.736"/>
      <line style="stroke-width: 1.5px; fill: rgb(183, 64, 64); stroke: rgb(183, 64, 64);" x1="80.54" y1="136.409" x2="337.514" y2="136.409"/>
      <line style="stroke-width: 1.5px; fill: rgb(183, 64, 64); stroke: rgb(183, 64, 64);" x1="95.092" y1="120.791" x2="352.066" y2="120.791"/>
      <line style="stroke-width: 1.5px; fill: rgb(183, 64, 64); stroke: rgb(183, 64, 64);" x1="112.13" y1="104.399" x2="369.104" y2="104.399"/>
    </g>
    <rect x="32.619" y="185.491" width="255.828" height="190.608" style="stroke: rgb(0, 0, 0); stroke-width: 2px; fill: rgba(183, 64, 64, 0.486); pointer-events: auto;">
      <title>rect front</title>
    </rect>
    <path d="M 289.242 184.188 L 384.061 88.098 L 382.122 278.196 L 288.447 376.099 L 289.242 184.188 Z" style="stroke: rgb(0, 0, 0); stroke-width: 2px; stroke-miterlimit: 3.62; stroke-linejoin: round; pointer-events: none; fill: rgba(183, 64, 64, 0.486);">
      <title>rect oblique lateral</title>
    </path>
    <path d="M 128.697 88.098 L 384.061 88.098 L 288.448 185.491 L 32.62 185.491 L 128.697 88.098 Z" style="stroke: rgb(0, 0, 0); stroke-width: 2px; stroke-linecap: round; stroke-linejoin: round; pointer-events: none; fill: rgba(183, 64, 64, 0.486);">
      <title>rect top</title>
    </path>
  </g>
  <g style="pointer-events: none;" transform="matrix(1, 0, 0, 1, 362.200104, -2.578172)">
    <title>cube</title>
    <g style="pointer-events: none;" transform="matrix(1, 0, 0, 0.984545, 0, 5.812459)">
      <title>v lines</title>
      <rect x="63.849" y="182.499" width="1.497" height="193.6" style="stroke: rgb(0, 0, 0); stroke-width: 0px; fill: rgb(64, 162, 183);"/>
      <rect x="95.558" y="182.499" width="1.497" height="193.6" style="stroke: rgb(0, 0, 0); stroke-width: 0px; fill: rgb(64, 162, 183);"/>
      <rect x="128.075" y="182.499" width="1.497" height="193.6" style="stroke: rgb(0, 0, 0); stroke-width: 0px; fill: rgb(64, 162, 183);"/>
      <rect x="159.247" y="182.499" width="1.497" height="193.6" style="stroke: rgb(0, 0, 0); stroke-width: 0px; fill: rgb(64, 162, 183);"/>
      <rect x="191.225" y="182.499" width="1.497" height="193.6" style="stroke: rgb(0, 0, 0); stroke-width: 0px; fill: rgb(64, 162, 183);"/>
      <rect x="223.472" y="182.499" width="1.497" height="193.6" style="stroke: rgb(0, 0, 0); stroke-width: 0px; fill: rgb(64, 162, 183);"/>
      <rect x="255.182" y="182.499" width="1.497" height="193.6" style="stroke: rgb(0, 0, 0); stroke-width: 0px; fill: rgb(64, 162, 183);"/>
    </g>
    <g style="pointer-events: none; transform-origin: 160.264px 279.299px;" transform="matrix(0, 1, -1.330697, 0, 1.166454, 32.133514)">
      <title>h lines</title>
      <rect x="63.849" y="184.015" width="1.497" height="192.083" style="stroke: rgb(0, 0, 0); stroke-width: 0px; fill: rgb(64, 162, 183);"/>
      <rect x="95.558" y="184.015" width="1.497" height="192.083" style="stroke: rgb(0, 0, 0); stroke-width: 0px; fill: rgb(64, 162, 183);"/>
      <rect x="128.075" y="184.015" width="1.497" height="192.083" style="stroke: rgb(0, 0, 0); stroke-width: 0px; fill: rgb(64, 162, 183);"/>
      <rect x="159.247" y="184.015" width="1.497" height="192.083" style="stroke: rgb(0, 0, 0); stroke-width: 0px; fill: rgb(64, 162, 183);"/>
      <rect x="191.225" y="184.015" width="1.497" height="192.083" style="stroke: rgb(0, 0, 0); stroke-width: 0px; fill: rgb(64, 162, 183);"/>
    </g>
    <g style="pointer-events: none;">
      <title>h o lines</title>
      <line style="fill: rgb(64, 162, 183); stroke: rgb(64, 162, 183); stroke-width: 1.5px;" x1="288.447" y1="215.018" x2="384.061" y2="121.41"/>
      <line style="fill: rgb(64, 162, 183); stroke: rgb(64, 162, 183); stroke-width: 1.5px;" x1="288.447" y1="247.358" x2="384.061" y2="153.016"/>
      <line style="fill: rgb(64, 162, 183); stroke: rgb(64, 162, 183); stroke-width: 1.5px;" x1="288.225" y1="280.2" x2="382.266" y2="185.491"/>
      <line style="fill: rgb(64, 162, 183); stroke: rgb(64, 162, 183); stroke-width: 1.5px;" x1="288.447" y1="311.137" x2="384.061" y2="216.978"/>
      <line style="fill: rgb(64, 162, 183); stroke: rgb(64, 162, 183); stroke-width: 1.5px;" x1="288.447" y1="343.891" x2="382.266" y2="250.283"/>
    </g>
    <g style="pointer-events: none;">
      <title>v o lines</title>
      <line style="fill: rgb(216, 216, 216); stroke: rgb(64, 162, 183); stroke-width: 1.5px;" x1="303.948" y1="168.902" x2="304.132" y2="358.756"/>
      <line style="fill: rgb(216, 216, 216); stroke: rgb(64, 162, 183); stroke-width: 1.5px;" x1="319.454" y1="153.816" x2="319.638" y2="343.891"/>
      <line style="fill: rgb(216, 216, 216); stroke: rgb(64, 162, 183); stroke-width: 1.5px;" x1="335.491" y1="137.28" x2="335.675" y2="326.252"/>
      <line style="fill: rgb(216, 216, 216); stroke: rgb(64, 162, 183); stroke-width: 1.5px;" x1="351.339" y1="121.41" x2="351.523" y2="309.503"/>
      <line style="fill: rgb(216, 216, 216); stroke: rgb(64, 162, 183); stroke-width: 1.5px;" x1="367.406" y1="106.368" x2="367.59" y2="294.461"/>
    </g>
    <g style="pointer-events: none;">
      <title>v t lines</title>
      <line style="fill: rgb(216, 216, 216); stroke: rgb(64, 162, 183); stroke-width: 1.5px;" x1="63.849" y1="185.491" x2="159.019" y2="88.098"/>
      <line style="fill: rgb(216, 216, 216); stroke: rgb(64, 162, 183); stroke-width: 1.5px;" x1="96.474" y1="185.491" x2="191.231" y2="88.098"/>
      <line style="fill: rgb(216, 216, 216); stroke: rgb(64, 162, 183); stroke-width: 1.5px;" x1="129.193" y1="185.491" x2="223.674" y2="88.098"/>
      <line style="fill: rgb(216, 216, 216); stroke: rgb(64, 162, 183); stroke-width: 1.5px;" x1="160.019" y1="185.491" x2="255.189" y2="88.098"/>
      <line style="fill: rgb(216, 216, 216); stroke: rgb(64, 162, 183); stroke-width: 1.5px;" x1="191.231" y1="185.491" x2="286.401" y2="88.098"/>
      <line style="fill: rgb(216, 216, 216); stroke: rgb(64, 162, 183); stroke-width: 1.5px;" x1="223.674" y1="185.491" x2="318.844" y2="88.098"/>
      <line style="fill: rgb(216, 216, 216); stroke: rgb(64, 162, 183); stroke-width: 1.5px;" x1="255.679" y1="185.491" x2="350.849" y2="88.098"/>
    </g>
    <g style="pointer-events: none;">
      <title>h t lines</title>
      <line style="fill: rgb(216, 216, 216); stroke-width: 1.5px; stroke: rgb(64, 162, 183);" x1="48.42" y1="169.578" x2="304.151" y2="169.578"/>
      <line style="fill: rgb(216, 216, 216); stroke-width: 1.5px; stroke: rgb(64, 162, 183);" x1="64.657" y1="152.736" x2="319.767" y2="152.736"/>
      <line style="fill: rgb(216, 216, 216); stroke-width: 1.5px; stroke: rgb(64, 162, 183);" x1="80.54" y1="136.409" x2="337.514" y2="136.409"/>
      <line style="fill: rgb(216, 216, 216); stroke-width: 1.5px; stroke: rgb(64, 162, 183);" x1="95.092" y1="120.791" x2="352.066" y2="120.791"/>
      <line style="fill: rgb(216, 216, 216); stroke-width: 1.5px; stroke: rgb(64, 162, 183);" x1="112.13" y1="104.399" x2="369.104" y2="104.399"/>
    </g>
    <rect x="32.619" y="185.491" width="255.828" height="190.608" style="stroke: rgb(0, 0, 0); stroke-width: 2px; fill: rgba(64, 162, 183, 0.486); pointer-events: none;">
      <title>rect front</title>
    </rect>
    <path d="M 289.242 184.188 L 384.061 88.098 L 382.122 278.196 L 288.447 376.099 L 289.242 184.188 Z" style="stroke: rgb(0, 0, 0); stroke-width: 2px; fill: rgba(64, 162, 183, 0.486); stroke-miterlimit: 3.62; stroke-linejoin: round; pointer-events: none;">
      <title>rect oblique lateral</title>
    </path>
    <path d="M 128.697 88.098 L 384.061 88.098 L 288.448 185.491 L 32.62 185.491 L 128.697 88.098 Z" style="stroke: rgb(0, 0, 0); stroke-width: 2px; fill: rgba(64, 162, 183, 0.486); stroke-linecap: round; stroke-linejoin: round; pointer-events: none;">
      <title>rect top</title>
    </path>
  </g>
  <g style="">
    <title>coord</title>
    <rect x="781.241" y="79.303" width="361.725" height="289.62" rx="18" ry="18" style="stroke: rgb(0, 0, 0); stroke-width: 2px; fill: rgb(237, 237, 237); pointer-events: none;">
      <title>box coord</title>
    </rect>
    <rect x="824.436" y="328.303" width="275.199" height="2.048" style="stroke: rgb(0, 0, 0); stroke-width: 0px; pointer-events: none;"/>
    <rect x="614.43" y="321.299" width="205" height="2.048" style="stroke: rgb(0, 0, 0); stroke-width: 0px; transform-box: fill-box; transform-origin: 50% 50%; pointer-events: none;" transform="matrix(0, -1, 1, 0, 107.262403, -94.477844)"/>
    <line style="fill: rgb(216, 216, 216); stroke: rgb(0, 0, 0); stroke-width: 2px; pointer-events: none;" x1="825.143" y1="327.816" x2="970.891" y2="187.392"/>
    <text style="fill: rgb(51, 51, 51); font-family: Ramabhadra; font-size: 36px; white-space: pre; pointer-events: none;" x="829.876" y="144.537">latitude</text>
    <text style="fill: rgb(51, 51, 51); font-family: Ramabhadra; font-size: 36px; white-space: pre; pointer-events: none;" x="1038.361" y="320.605">time</text>
    <text style="fill: rgb(51, 51, 51); font-family: Ramabhadra; font-size: 36px; white-space: pre; pointer-events: none;"><tspan x="976.304" y="203.032">lon</tspan><tspan style="fill: rgb(237, 237, 237);">g</tspan><tspan>itude</tspan></text>
    <text style="fill: rgb(51, 51, 51); font-family: Ramabhadra; font-size: 36px; white-space: pre; pointer-events: none;" x="1018.217" y="205.445"><title>g</title>g</text>
  </g>
  <text style="fill: rgb(51, 51, 51); font-family: Ramabhadra; font-size: 36px; white-space: pre; pointer-events: none;"><title>temperature</title><tspan x="159.94" y="60.074">tem</tspan><tspan style="fill: rgb(255, 255, 255);">p</tspan><tspan>erature</tspan></text>
  <text style="fill: rgb(51, 51, 51); font-family: Ramabhadra; font-size: 36px; white-space: pre; pointer-events: none;"><title>precipitation</title><tspan x="532.177" y="60.074" style="fill: rgb(255, 255, 255);">p</tspan><tspan>reci</tspan><tspan style="fill: rgb(255, 255, 255);">p</tspan><tspan>itation</tspan></text>
  <text style="fill: rgb(51, 51, 51); font-family: Ramabhadra; font-size: 53px; white-space: pre; pointer-events: none;" x="247.178" y="512.272"><title>dimensions</title>Dimensions</text>
  <path d="M 336.187 591.528 L 338.865 591.528 C 342.08 591.528 344.224 591.528 346.366 589.896 C 348.509 588.263 350.653 583.365 352.259 576.84 C 353.865 570.315 354.402 563.79 354.937 555.632 C 355.474 547.469 355.474 532.786 355.474 513.205 C 355.474 498.522 355.474 488.732 356.009 480.574 C 356.546 472.416 357.616 464.253 359.224 459.361 C 360.83 454.468 362.972 451.203 366.187 451.203 L 366.187 425.097 C 362.972 425.097 360.83 421.832 359.224 416.939 C 357.616 412.041 356.546 403.883 356.009 395.726 C 355.474 387.568 355.474 377.777 355.474 363.094 C 355.474 343.514 355.474 328.825 354.937 320.668 C 354.402 312.51 353.865 305.985 352.259 299.454 C 350.653 292.929 348.509 288.036 346.366 286.404 C 344.224 284.771 342.08 284.771 338.865 284.771 L 336.187 284.771 L 336.187 309.245 L 337.795 309.245 C 341.546 309.245 343.687 310.877 344.759 314.142 C 346.366 319.035 346.902 320.668 346.902 325.565 L 346.902 366.354 C 346.902 390.828 347.972 407.149 349.581 416.939 C 351.187 426.729 354.402 433.255 357.616 438.147 C 354.402 443.045 351.187 449.57 349.581 459.361 C 347.972 469.151 346.902 485.467 346.902 509.945 L 346.902 550.734 C 346.902 555.632 346.366 557.259 344.759 562.157 C 343.687 565.417 341.546 567.05 337.795 567.05 L 336.187 567.05 L 336.187 591.528 Z" id="path-1" style="transform-origin: 351.187px 438.149px; pointer-events: none;" transform="matrix(0, 1, -1, 0, -0.000006, -0.000011)">
    <title>brackets dim</title>
  </path>
  <text style="fill: rgb(51, 51, 51); font-family: Ramabhadra; font-size: 53px; white-space: pre; pointer-events: none;" x="838.241" y="512.264"><title>coord</title>Coordinates</text>
  <path d="M 943.093 584.072 L 945.771 584.072 C 948.986 584.072 951.13 584.072 953.272 582.44 C 955.415 580.807 957.559 575.909 959.165 569.384 C 960.771 562.859 961.308 556.334 961.843 548.176 C 962.38 540.013 962.38 525.33 962.38 505.749 C 962.38 491.066 962.38 481.276 962.915 473.118 C 963.452 464.96 964.522 456.797 966.13 451.905 C 967.736 447.012 969.878 443.747 973.093 443.747 L 973.093 417.641 C 969.878 417.641 967.736 414.376 966.13 409.483 C 964.522 404.585 963.452 396.427 962.915 388.27 C 962.38 380.112 962.38 370.321 962.38 355.638 C 962.38 336.058 962.38 321.369 961.843 313.212 C 961.308 305.054 960.771 298.529 959.165 291.998 C 957.559 285.473 955.415 280.58 953.272 278.948 C 951.13 277.315 948.986 277.315 945.771 277.315 L 943.093 277.315 L 943.093 301.789 L 944.701 301.789 C 948.452 301.789 950.593 303.421 951.665 306.686 C 953.272 311.579 953.808 313.212 953.808 318.109 L 953.808 358.898 C 953.808 383.372 954.878 399.693 956.487 409.483 C 958.093 419.273 961.308 425.799 964.522 430.691 C 961.308 435.589 958.093 442.114 956.487 451.905 C 954.878 461.695 953.808 478.011 953.808 502.489 L 953.808 543.278 C 953.808 548.176 953.272 549.803 951.665 554.701 C 950.593 557.961 948.452 559.594 944.701 559.594 L 943.093 559.594 L 943.093 584.072 Z" id="llv" style="transform-box: fill-box; transform-origin: 50% 50%; pointer-events: none;" transform="matrix(0, 1, -1, 0, 0.000023, -0.00005)">
    <title>brackets coord</title>
  </path>
  <path d="M 1203.985 198.476 H 1212.46 V 214.82 H 1229.409 V 222.991 H 1212.46 V 239.335 H 1203.985 V 222.991 H 1187.036 V 214.82 H 1203.985 Z" style="stroke: rgb(0, 0, 0); stroke-width: 0px; pointer-events: none;" bx:shape="cross 1187.036 198.476 42.373 40.859 8.171 8.475 0.5 1@5d7610c9">
    <title>plus</title>
  </path>
  <text style="fill: rgb(51, 51, 51); font-family: Ramabhadra; font-size: 53px; white-space: pre; pointer-events: none;" x="1251.17" y="231.924"><title>attributes</title>Attributes</text>
  <text style="fill: rgb(51, 51, 51); font-family: Ramabhadra; font-size: 36px; white-space: pre; pointer-events: none;" x="210.305" y="61.925"><title>p</title>p</text>
  <text style="fill: rgb(51, 51, 51); font-family: Ramabhadra; font-size: 36px; white-space: pre; pointer-events: none;" x="532.347" y="61.256"><title>p</title>p</text>
  <text style="fill: rgb(51, 51, 51); font-family: Ramabhadra; font-size: 36px; white-space: pre; pointer-events: none;" x="599.488" y="61.862"><title>p</title>p</text>
</svg>