<?xml version="1.0" encoding="utf-8"?>
<svg version="1.1" x="0px" y="0px" width="651.969px" height="340.158px" viewBox="0 0 651.969 340.158" lang="mul" xmlns="http://www.w3.org/2000/svg">
  <g font-family="'Liberation Sans', Dyuthi, 'VL PGothic', sans-serif">
    <path fill="none" stroke="#000000" stroke-width="0.5669" stroke-miterlimit="22.9256" d="M162.1,41.566  c69.218,0,125.351,55.633,125.351,124.233c0,68.6-56.133,124.234-125.351,124.234c-69.217,0-125.35-55.634-125.35-124.234  C36.75,97.199,92.883,41.566,162.1,41.566z"/>
    <path fill="none" stroke="#000000" stroke-width="1.0001" stroke-miterlimit="22.9256" d="M161.465,42.785  c65.843,0,119.24,54.757,119.24,122.277s-53.396,122.277-119.24,122.277s-119.24-54.757-119.24-122.277  S95.622,42.785,161.465,42.785z"/>
    <path fill="none" stroke="#000000" stroke-width="1.0001" stroke-miterlimit="22.9256" d="M161.465,43.182  c58.319,0,105.612,54.795,105.612,122.363s-47.293,122.362-105.612,122.362c-58.318,0-105.612-54.794-105.612-122.362  S103.147,43.182,161.465,43.182z"/>
    <path fill="none" stroke="#000000" stroke-width="1.0001" stroke-miterlimit="22.9256" d="M164.021,43.182  c46.561,0,84.32,54.732,84.32,122.221s-37.759,122.221-84.32,122.221s-84.32-54.731-84.32-122.221S117.46,43.182,164.021,43.182z"/>
    <path fill="none" stroke="#000000" stroke-width="1.0001" stroke-miterlimit="22.9256" d="M163.169,42.898  c29.786,0,53.941,54.858,53.941,122.505s-24.155,122.504-53.941,122.504s-53.942-54.857-53.942-122.504  S133.383,42.898,163.169,42.898z"/>
    <path fill="none" stroke="#000000" stroke-width="1.0001" stroke-miterlimit="22.9256" d="M164.588,42.614  c11.13,0,20.157,54.859,20.157,122.505c0,67.645-9.027,122.504-20.157,122.504c-11.131,0-20.157-54.859-20.157-122.504  C144.431,97.473,153.458,42.614,164.588,42.614z"/>
    <path fill="none" stroke="#000000" stroke-width="1.0001" stroke-miterlimit="22.9256" d="M281.839,195.922  c-85.182,3.785-165.542,3.028-241.082-2.271"/>
    <path fill="none" stroke="#000000" stroke-width="1.0001" stroke-miterlimit="22.9256" d="M271.988,223.745  c-62.776,9.843-137.337,10.6-217.271,2.271"/>
    <path fill="none" stroke="#000000" stroke-width="1.0001" stroke-miterlimit="22.9256" d="M252.115,250.465  c-59.658,9.842-121.349,10.377-178.66,0.535"/>
    <path fill="none" stroke="#000000" stroke-width="1.0001" stroke-miterlimit="22.9256" d="M233.11,266.164  c-37.75,9.274-89.292,11.713-135.39,3.574"/>
    <path fill="none" stroke="#000000" stroke-width="1.0001" stroke-miterlimit="22.9256" d="M280.718,128.921  c-126.916-6.772-206.603-6.772-239.06,0"/>
    <path fill="none" stroke="#000000" stroke-width="1.0001" stroke-miterlimit="22.9256" d="M264.807,97.691  c-93.922-6.814-163.006-6.814-207.25,0"/>
    <path fill="none" stroke="#000000" stroke-width="1.0001" stroke-miterlimit="22.9256" d="M242.662,72.14  c-62.585-9.788-117.284-9.788-164.097,0"/>
    <path fill="none" stroke="#000000" stroke-width="1.0001" stroke-miterlimit="22.9256" d="M211.433,51.699  c-46.121-4.084-78.487-4.084-97.095,0"/>
    <path fill="none" stroke="#000000" stroke-width="2.9999" stroke-miterlimit="22.9256" stroke-dasharray="6,3" d="M286.383,164.111  c-119.771,0-202.689,0-248.755,0"/>
    <path fill="none" stroke="#000000" stroke-width="2.9999" stroke-miterlimit="22.9256" d="M162.033,41.479  c68.979,0,124.917,55.431,124.917,123.782c0,68.351-55.938,123.783-124.917,123.783S37.115,233.612,37.115,165.261  C37.115,96.909,93.054,41.479,162.033,41.479z"/>
    <path fill="none" stroke="#000000" stroke-width="0.5669" stroke-miterlimit="22.9256" d="M497.564,43.682  c68.356,0,123.791,55.256,123.791,123.393s-55.435,123.393-123.791,123.393c-68.355,0-123.79-55.256-123.79-123.393  S429.209,43.682,497.564,43.682z"/>
    <path fill="none" stroke="#000000" stroke-width="1.0001" stroke-miterlimit="22.9256" d="M500.523,44.28  c36.213,0,65.581,19.452,65.581,43.437c0,23.986-29.368,43.438-65.581,43.438c-36.215,0-65.583-19.452-65.583-43.438  C434.94,63.732,464.309,44.28,500.523,44.28z"/>
    <path fill="none" stroke="#000000" stroke-width="1.0001" stroke-miterlimit="22.9256" d="M498.252,55.068  c19.596,0,35.487,9.663,35.487,21.577c0,11.915-15.892,21.577-35.487,21.577c-19.597,0-35.488-9.662-35.488-21.577  C462.764,64.731,478.655,55.068,498.252,55.068z"/>
    <path fill="none" stroke="#000000" stroke-width="2.9999" stroke-miterlimit="22.9256" d="M497.399,42.009  c68.979,0,124.918,55.431,124.918,123.782s-55.938,123.783-124.918,123.783c-68.979,0-124.917-55.432-124.917-123.783  S428.421,42.009,497.399,42.009z"/>
    <path fill="none" stroke="#000000" stroke-width="2.9999" stroke-miterlimit="22.9256" stroke-dasharray="6,3" d="M499.104,75.3  c0,137.027,0,210.101,0,214.274"/>
    <path fill="none" stroke="#000000" stroke-width="1.0001" stroke-miterlimit="22.9256" d="M526.588,285.599  c14.691-42.586,5.91-116.212-27.481-214.064"/>
    <path fill="none" stroke="#000000" stroke-width="1.0001" stroke-miterlimit="22.9256" d="M499.671,71.535  c53.374,75.431,71.732,145.556,53.942,205.263"/>
    <path fill="none" stroke="#000000" stroke-width="1.0001" stroke-miterlimit="22.9256" d="M500.239,70.967  c66.706,54.015,94.47,118.461,83.076,184.822"/>
    <path fill="none" stroke="#000000" stroke-width="1.0001" stroke-miterlimit="22.9256" d="M602.092,231.657  c14.126-54.698-19.919-114.318-101.001-160.689"/>
    <path fill="none" stroke="#000000" stroke-width="1.0001" stroke-miterlimit="22.9256" d="M501.091,70.683  c80.163,24.887,118.77,75.428,115.833,124.35"/>
    <path fill="none" stroke="#000000" stroke-width="1.0001" stroke-miterlimit="22.9256" d="M620.798,150.076  c-24.013-50.174-68.974-80.547-120.319-79.96"/>
    <path fill="none" stroke="#000000" stroke-width="1.0001" stroke-miterlimit="22.9256" d="M607.271,105.669  c-30.562-33.323-67.753-46.442-106.464-37.085c5.349-5.817,24.615-10.219,44.899-8.638c6.807,0.53,13.56,2.749,20.111,4.78  c3.675,1.139,6.086,2.219,9.609,2.908"/>
    <path fill="none" stroke="#000000" stroke-width="1.0001" stroke-miterlimit="22.9256" d="M533.052,46.813  c-16.856,6.039-29.891,15.66-33.665,23.711"/>
    <path fill="none" stroke="#000000" stroke-width="1.0001" stroke-miterlimit="22.9256" d="M514.419,44.265  c-7.949,7.507-12.666,15.598-15.315,23.106"/>
    <path fill="none" stroke="#000000" stroke-width="1.0001" stroke-miterlimit="22.9256" d="M479.305,43.084  c14.283,6,18.754,16.177,19.239,25.869"/>
    <path fill="none" stroke="#000000" stroke-width="1.0001" stroke-miterlimit="22.9256" d="M456.339,48.39  c20.193-0.212,32.769,8.045,40.209,18.886"/>
    <path fill="none" stroke="#000000" stroke-width="1.0001" stroke-miterlimit="22.9256" d="M496.832,68.022  c-36.985-13.013-69.168-6.826-96.547,18.56"/>
    <path fill="none" stroke="#000000" stroke-width="1.0001" stroke-miterlimit="22.9256" d="M497.116,69.266  c-34.707-7.596-71.331,3.192-103.909,27.821"/>
    <path fill="none" stroke="#000000" stroke-width="1.0001" stroke-miterlimit="22.9256" d="M498.325,69.622  c-23.903-4.254-52.099,6.303-82.098,24.414c-12.774,7.712-30.421,27.667-39.644,41.03"/>
    <path fill="none" stroke="#000000" stroke-width="1.0001" stroke-miterlimit="22.9256" d="M495.128,71.132  c-42.599,14.392-92.767,21.284-121.057,108.577"/>
    <path fill="none" stroke="#000000" stroke-width="1.0001" stroke-miterlimit="22.9256" d="M385.825,219.356  c0.389-56.606,38.434-112.505,111.863-149.524c-61.774,47.597-92.438,112.496-88.552,182.617"/>
    <path fill="none" stroke="#000000" stroke-width="1.0001" stroke-miterlimit="22.9256" d="M497.874,70.399  c-53.887,72.109-72.826,143.976-58.521,205.113"/>
    <path fill="none" stroke="#000000" stroke-width="1.0001" stroke-miterlimit="22.9256" d="M498.243,71.251  c-31.172,90.377-39.426,163.53-25.898,215.483"/>
    <path fill="none" stroke="#000000" stroke-width="1.0001" stroke-miterlimit="22.9256" d="M460.062,48.985  c-13.316,4.542-25.296,11.757-35.94,21.644c-9.842,10.6-14.786,21.734-15.364,33.402c-0.356,13.405,5.121,25.741,16.566,37.276  c11.892,11.846,28.637,19.997,50.37,24.317c24.495,4.498,47.877,2.672,70.278-5.478c20.664-7.527,35.094-20.131,43.289-37.811  c6.858-18.839,3.073-36.297-11.49-52.508"/>
    <path fill="none" stroke="#000000" stroke-width="1.0001" stroke-miterlimit="22.9256" d="M609.436,111.513  c5.789,24.316-4.275,47.03-30.196,68.14c-20.708,14.652-47.207,22.669-79.496,23.916c-31.665-0.178-58.966-8.373-81.901-24.584  c-27.301-21.778-36.609-46.317-28.191-73.618"/>
    <path fill="none" stroke="#000000" stroke-width="1.0001" stroke-miterlimit="22.9256" d="M377.225,133.692  c-5.032,30.374,6.057,56.115,33.269,77.226c26.099,17.368,55.536,26.053,88.448,25.92c34.961-0.713,63.598-9.486,85.91-26.188  c22.49-15.053,34.56-36.92,36.208-65.468"/>
    <path fill="none" stroke="#000000" stroke-width="1.0001" stroke-miterlimit="22.9256" d="M620.792,184.062  c-7.615,24.316-19.239,41.686-34.872,52.107c-26.899,18.305-55.67,27.39-86.578,27.39c-26.142-0.847-47.208-5.077-63.196-12.426  c-21.6-9.264-38.211-23.024-49.568-41.151c-5.879-9.353-10.154-18.349-12.826-26.988"/>
    <path fill="none" stroke="#000000" stroke-width="1.0001" stroke-miterlimit="22.9256" d="M391.788,228.554  c15.81,20.263,31.531,33.49,47.163,39.681c20.844,9.62,41.285,13.896,60.926,12.826c22.224-0.044,41.151-4.319,56.783-12.692  c22.134-10.377,39.325-25.519,51.706-45.293"/>
    <path fill="none" stroke="#000000" stroke-width="1.0001" stroke-miterlimit="22.9256" d="M498.805,41.745  c0,27.489,0,36.399,0,26.73"/>
    <path fill="none" stroke="#000000" stroke-width="1.0001" stroke-miterlimit="22.9256" d="M497.328,68.088  c-26.809-12.822-48.955-15.542-66.439-8.159"/>
    <path fill="none" stroke="#000000" stroke-width="1.0001" stroke-miterlimit="22.9256" d="M553.86,54.684  c-17.483-2.719-32.929,2.72-55.075,13.987"/>
    <g font-size="16" style="visibility: hidden;">
      <path d="M57.508,60.361l-5.227,14.269l-0.148-0.388l-0.156-0.38l-0.164-0.371l-0.172-0.363l-0.18-0.354l-0.188-0.346l-0.196-0.337  l-0.204-0.329l-0.212-0.321l-0.22-0.312l-0.228-0.303l-0.236-0.295l-0.244-0.286l-0.252-0.278l-0.26-0.269l-0.268-0.261  l-0.276-0.252l-0.285-0.244l-0.292-0.235l-0.3-0.227l-0.309-0.218l-0.316-0.21l-0.325-0.201l-0.333-0.193l-0.34-0.185l-0.349-0.176  l-0.356-0.167l-0.365-0.159l-0.372-0.15l-0.38-0.142l-0.389-0.133l-0.396-0.125L57.508,60.361z M51.966,64.784l1.453,1.367  l-1.149,1.239l-1.14,1.267l-1.122,1.292l-1.109,1.319l-1.1,1.346l-1.083,1.372l-1.073,1.399l-1.06,1.425l-1.047,1.452l-1.033,1.478  l-1.02,1.505l-1.007,1.532l-0.994,1.558l-0.98,1.584l-0.967,1.611l-0.958,1.637l-0.941,1.665l-0.927,1.69l-0.918,1.721l-0.901,1.744  l-0.892,1.77l-0.878,1.797l-0.865,1.827l-0.847,1.85l-0.839,1.88l-0.825,1.903l-0.813,1.929l-0.798,1.959l-0.785,1.983l-0.772,2.013  l-0.759,2.04L23.072,119l-1.883-0.664l0.753-2.086l0.767-2.055l0.78-2.029l0.793-2.005l0.806-1.976l0.82-1.953l0.833-1.926  l0.846-1.896l0.864-1.874l0.873-1.843l0.886-1.82l0.899-1.794l0.917-1.767l0.926-1.737l0.943-1.714l0.956-1.688l0.966-1.661  l0.983-1.634l0.996-1.608l1.009-1.582l1.022-1.555l1.036-1.528l1.049-1.502l1.063-1.475l1.076-1.449l1.088-1.422l1.106-1.396  l1.115-1.369l1.133-1.343l1.146-1.316l1.155-1.29L51.966,64.784z"/>
    </g>
    <g font-size="16" style="visibility: hidden;">
      <path d="M619.013,249.169l-0.675,15.183l-0.258-0.325l-0.264-0.315l-0.269-0.305l-0.273-0.294l-0.278-0.283l-0.284-0.273  l-0.289-0.263l-0.293-0.252l-0.3-0.241l-0.304-0.231l-0.31-0.221l-0.313-0.21l-0.319-0.199l-0.324-0.188l-0.33-0.179l-0.334-0.167  l-0.34-0.157l-0.345-0.147l-0.35-0.136l-0.354-0.126l-0.36-0.115l-0.365-0.104l-0.369-0.094l-0.376-0.083l-0.38-0.073l-0.386-0.063  l-0.39-0.052l-0.396-0.042l-0.4-0.03l-0.406-0.021l-0.41-0.01l-0.416,0.001L619.013,249.169z M615.064,255.06l1.798,0.867  l-0.918,1.856l-0.953,1.819l-0.981,1.791l-1.017,1.758l-1.049,1.725l-1.081,1.692l-1.116,1.66l-1.145,1.622l-1.177,1.594  l-1.213,1.561l-1.244,1.524l-1.275,1.495l-1.309,1.463l-1.34,1.425l-1.371,1.393l-1.408,1.36l-1.436,1.33l-1.471,1.295l-1.5,1.261  l-1.535,1.225l-1.567,1.195l-1.595,1.159l-1.631,1.13l-1.663,1.093l-1.695,1.061l-1.727,1.027l-1.759,0.994l-1.79,0.958  l-1.822,0.929l-1.854,0.892l-1.886,0.863l-1.918,0.826l-0.767-1.844l1.88-0.811l1.847-0.84l1.815-0.876l1.783-0.905l1.751-0.942  l1.72-0.971l1.688-1.004l1.656-1.037l1.623-1.069l1.592-1.099l1.564-1.136l1.528-1.164l1.496-1.201l1.468-1.229l1.433-1.264  l1.404-1.292l1.368-1.328l1.341-1.361l1.309-1.394l1.277-1.424l1.244-1.456l1.213-1.492l1.182-1.522l1.153-1.555l1.121-1.591  l1.085-1.62l1.058-1.653l1.025-1.687l0.993-1.719l0.966-1.752l0.93-1.789L615.064,255.06z"/>
    </g>
    <text style="fill: rgb(51, 51, 51); font-family: Arial, sans-serif; font-size: 18px; font-weight: 700; white-space: pre;" x="219.685" y="31.703">TO BE COMPLETED</text>
  </g>
</svg>